<svg width="122" height="122" viewBox="0 0 122 122" fill="none" xmlns="http://www.w3.org/2000/svg">
<rect x="2.82843" y="61" width="82.267" height="82.267" rx="12" transform="rotate(-45 2.82843 61)" stroke="#868686" stroke-width="4"/>
<path d="M83.475 39.9412C83.7611 40.2283 83.9218 40.617 83.9218 41.0223C83.9218 41.4276 83.7611 41.8163 83.475 42.1034L80.2808 45.3006L74.1558 39.1756L77.35 35.9784C77.6371 35.6913 78.0265 35.53 78.4326 35.53C78.8386 35.53 79.228 35.6913 79.5151 35.9784L83.475 39.9382V39.9412ZM78.1156 47.4627L71.9906 41.3377L51.1258 62.2056C50.9572 62.3741 50.8304 62.5797 50.7552 62.8059L48.2899 70.1987C48.2452 70.3335 48.2389 70.4781 48.2716 70.6162C48.3043 70.7544 48.3748 70.8808 48.4752 70.9812C48.5756 71.0816 48.702 71.1521 48.8402 71.1848C48.9783 71.2175 49.1229 71.2112 49.2577 71.1665L56.6505 68.7012C56.8764 68.6269 57.082 68.5011 57.2508 68.3337L78.1156 47.4627Z" fill="#868686"/>
<path fill-rule="evenodd" clip-rule="evenodd" d="M39.0625 75.3438C39.0625 76.5621 39.5465 77.7305 40.408 78.592C41.2695 79.4535 42.4379 79.9375 43.6562 79.9375H77.3438C78.5621 79.9375 79.7305 79.4535 80.592 78.592C81.4535 77.7305 81.9375 76.5621 81.9375 75.3438V56.9688C81.9375 56.5626 81.7762 56.1732 81.489 55.886C81.2018 55.5988 80.8124 55.4375 80.4062 55.4375C80.0001 55.4375 79.6107 55.5988 79.3235 55.886C79.0363 56.1732 78.875 56.5626 78.875 56.9688V75.3438C78.875 75.7499 78.7137 76.1393 78.4265 76.4265C78.1393 76.7137 77.7499 76.875 77.3438 76.875H43.6562C43.2501 76.875 42.8607 76.7137 42.5735 76.4265C42.2863 76.1393 42.125 75.7499 42.125 75.3438V41.6562C42.125 41.2501 42.2863 40.8607 42.5735 40.5735C42.8607 40.2863 43.2501 40.125 43.6562 40.125H63.5625C63.9686 40.125 64.3581 39.9637 64.6453 39.6765C64.9324 39.3893 65.0938 38.9999 65.0938 38.5938C65.0938 38.1876 64.9324 37.7982 64.6453 37.511C64.3581 37.2238 63.9686 37.0625 63.5625 37.0625H43.6562C42.4379 37.0625 41.2695 37.5465 40.408 38.408C39.5465 39.2695 39.0625 40.4379 39.0625 41.6562V75.3438Z" fill="#868686"/>
</svg>
