<svg width="122" height="122" viewBox="0 0 122 122" fill="none" xmlns="http://www.w3.org/2000/svg">
<g clip-path="url(#clip0_625_15)">
<path d="M69.6875 54.375C69.6875 56.8117 68.7195 59.1486 66.9965 60.8715C65.2736 62.5945 62.9367 63.5625 60.5 63.5625C58.0633 63.5625 55.7264 62.5945 54.0035 60.8715C52.2805 59.1486 51.3125 56.8117 51.3125 54.375C51.3125 51.9383 52.2805 49.6014 54.0035 47.8785C55.7264 46.1555 58.0633 45.1875 60.5 45.1875C62.9367 45.1875 65.2736 46.1555 66.9965 47.8785C68.7195 49.6014 69.6875 51.9383 69.6875 54.375Z" fill="white"/>
<path fill-rule="evenodd" clip-rule="evenodd" d="M36 60.5C36 54.0022 38.5812 47.7705 43.1759 43.1759C47.7705 38.5812 54.0022 36 60.5 36C66.9978 36 73.2295 38.5812 77.8241 43.1759C82.4188 47.7705 85 54.0022 85 60.5C85 66.9978 82.4188 73.2295 77.8241 77.8241C73.2295 82.4188 66.9978 85 60.5 85C54.0022 85 47.7705 82.4188 43.1759 77.8241C38.5812 73.2295 36 66.9978 36 60.5ZM60.5 39.0625C56.4629 39.0627 52.508 40.2029 49.0904 42.3517C45.6727 44.5006 42.9313 47.5708 41.1816 51.209C39.432 54.8472 38.7452 58.9055 39.2003 62.9168C39.6554 66.9281 41.234 70.7294 43.7543 73.8831C45.9286 70.3796 50.7153 66.625 60.5 66.625C70.2847 66.625 75.0683 70.3766 77.2458 73.8831C79.766 70.7294 81.3446 66.9281 81.7997 62.9168C82.2548 58.9055 81.568 54.8472 79.8184 51.209C78.0687 47.5708 75.3273 44.5006 71.9096 42.3517C68.492 40.2029 64.5371 39.0627 60.5 39.0625Z" fill="white"/>
</g>
<rect x="2.82843" y="61" width="82.267" height="82.267" rx="12" transform="rotate(-45 2.82843 61)" stroke="white" stroke-width="4"/>
<defs>
<clipPath id="clip0_625_15">
<rect width="49" height="49" fill="white" transform="translate(36 36)"/>
</clipPath>
</defs>
</svg>
