<svg width="122" height="122" viewBox="0 0 122 122" fill="none" xmlns="http://www.w3.org/2000/svg">
<path d="M62.0312 44.229C64.0341 42.1189 67.4886 41.5156 71.5618 41.926C75.3409 42.3057 79.2272 43.5277 81.9375 44.6608V75.05C79.1261 73.9781 75.4848 72.9307 71.8711 72.5694C68.5207 72.2294 64.8947 72.4499 62.0312 74.0761V44.229ZM60.5 41.4605C57.4834 38.8665 53.1102 38.4807 49.1289 38.8788C44.4923 39.3474 39.8128 40.9368 36.8973 42.2629C36.6298 42.3845 36.4029 42.5806 36.2438 42.8277C36.0847 43.0748 36.0001 43.3624 36 43.6563V77.3438C36.0001 77.6 36.0644 77.8521 36.1872 78.077C36.3099 78.3019 36.4871 78.4924 36.7026 78.631C36.918 78.7697 37.1648 78.852 37.4203 78.8706C37.6759 78.8892 37.932 78.8433 38.1652 78.7372C40.8663 77.5122 45.2181 76.0392 49.4352 75.6135C53.7502 75.1786 57.3671 75.8799 59.3056 78.2993C59.4491 78.4781 59.6309 78.6225 59.8376 78.7217C60.0444 78.8208 60.2707 78.8723 60.5 78.8723C60.7293 78.8723 60.9556 78.8208 61.1624 78.7217C61.3691 78.6225 61.5509 78.4781 61.6944 78.2993C63.6329 75.8799 67.2498 75.1786 71.5618 75.6135C75.7819 76.0392 80.1367 77.5122 82.8348 78.7372C83.068 78.8433 83.3241 78.8892 83.5797 78.8706C83.8352 78.852 84.082 78.7697 84.2974 78.631C84.5129 78.4924 84.6901 78.3019 84.8128 78.077C84.9356 77.8521 84.9999 77.6 85 77.3438V43.6563C84.9999 43.3624 84.9153 43.0748 84.7562 42.8277C84.597 42.5806 84.3702 42.3845 84.1027 42.2629C81.1872 40.9368 76.5077 39.3474 71.8711 38.8788C67.8898 38.4776 63.5166 38.8665 60.5 41.4605Z" fill="#868686"/>
<rect x="2.82843" y="61" width="82.267" height="82.267" rx="12" transform="rotate(-45 2.82843 61)" stroke="#868686" stroke-width="4"/>
</svg>
