<svg width="122" height="122" viewBox="0 0 122 122" fill="none" xmlns="http://www.w3.org/2000/svg">
<path d="M55.9062 41.0625C54.6879 41.0625 53.5195 41.5465 52.658 42.408C51.7965 43.2695 51.3125 44.4379 51.3125 45.6562V47.1875H40.5938C39.3754 47.1875 38.207 47.6715 37.3455 48.533C36.484 49.3945 36 50.5629 36 51.7812V76.2812C36 77.4996 36.484 78.668 37.3455 79.5295C38.207 80.391 39.3754 80.875 40.5938 80.875H80.4062C81.6246 80.875 82.793 80.391 83.6545 79.5295C84.516 78.668 85 77.4996 85 76.2812V51.7812C85 50.5629 84.516 49.3945 83.6545 48.533C82.793 47.6715 81.6246 47.1875 80.4062 47.1875H69.6875V45.6562C69.6875 44.4379 69.2035 43.2695 68.342 42.408C67.4805 41.5465 66.3121 41.0625 65.0938 41.0625H55.9062ZM55.9062 44.125H65.0938C65.4999 44.125 65.8893 44.2863 66.1765 44.5735C66.4637 44.8607 66.625 45.2501 66.625 45.6562V47.1875H54.375V45.6562C54.375 45.2501 54.5363 44.8607 54.8235 44.5735C55.1107 44.2863 55.5001 44.125 55.9062 44.125ZM61.6821 65.2991L81.9375 59.8999V76.2812C81.9375 76.6874 81.7762 77.0768 81.489 77.364C81.2018 77.6512 80.8124 77.8125 80.4062 77.8125H40.5938C40.1876 77.8125 39.7982 77.6512 39.511 77.364C39.2238 77.0768 39.0625 76.6874 39.0625 76.2812V59.8969L59.3179 65.2991C60.0925 65.5054 60.9075 65.5054 61.6821 65.2991ZM40.5938 50.25H80.4062C80.8124 50.25 81.2018 50.4113 81.489 50.6985C81.7762 50.9857 81.9375 51.3751 81.9375 51.7812V56.7303L60.8951 62.3407C60.6362 62.4099 60.3638 62.4099 60.1049 62.3407L39.0625 56.7303V51.7812C39.0625 51.3751 39.2238 50.9857 39.511 50.6985C39.7982 50.4113 40.1876 50.25 40.5938 50.25Z" fill="#868686"/>
<rect x="2.82843" y="61" width="82.267" height="82.267" rx="12" transform="rotate(-45 2.82843 61)" stroke="#868686" stroke-width="4"/>
</svg>
