<svg width="50" height="50" viewBox="0 0 50 50" fill="none" xmlns="http://www.w3.org/2000/svg">
<path d="M6.25 6.25C4.83401 6.2499 3.45996 6.73064 2.35288 7.61346C1.2458 8.49629 0.471307 9.72888 0.15625 11.1094L25 26.2937L49.8438 11.1094C49.5287 9.72888 48.7542 8.49629 47.6471 7.61346C46.54 6.73064 45.166 6.2499 43.75 6.25H6.25ZM0 36.875V14.6812L18.1344 25.7625L0 36.875ZM21.1281 27.5938L0.596875 40.175C1.1037 41.2452 1.90413 42.1494 2.90496 42.7824C3.90579 43.4153 5.06583 43.7509 6.25 43.75H25.8C25.2688 42.2444 24.9982 40.6591 25 39.0625C24.9979 37.0097 25.4462 34.9814 26.3133 33.1207C27.1805 31.26 28.4454 29.6123 30.0187 28.2937L28.8719 27.5906L25 29.9563L21.1281 27.5938ZM50 30.2219V14.6781L31.8656 25.7594L32.9219 26.4094C34.8352 25.4793 36.9352 24.9974 39.0625 25C43.4813 25 47.4219 27.0375 50 30.2219Z" fill="white"/>
<path d="M49.4812 38.2625C49.4812 41.9125 47.6781 44.5906 44.5219 44.5906C42.95 44.5906 41.3906 43.8781 41.0219 42.5656H40.8875C40.5187 43.8656 39.1906 44.575 37.7156 44.575C35.3094 44.575 33.7813 42.8812 33.7813 40.0938V38.4406C33.7813 35.8031 35.2844 34.0656 37.7187 34.0656C39.5469 34.0656 40.4375 35.1063 40.6969 36.0344H40.7906V34.2594H43.6188V41.1031C43.6188 41.9531 44.1813 42.4156 44.9031 42.4156C45.8875 42.4156 46.9 41.1187 46.9 38.0719V37.7031C46.9 33.7125 43.9313 30.4344 39.1375 30.4344H39.0125C34.0688 30.4344 30.7625 33.7688 30.7625 38.9469V39.4375C30.7625 45.2719 34.6281 47.7313 38.7937 47.7313H38.9344C40.5187 47.7313 41.8562 47.5125 42.6219 47.1687V49.4531C41.9375 49.7656 40.6125 50 38.7563 50H38.6187C32.6187 50 28.125 46.3125 28.125 39.5187V38.85C28.125 32.375 32.5656 28.125 39.0156 28.125H39.125C45.75 28.125 49.4812 32.5938 49.4812 37.6063V38.2625ZM36.8562 38.9188V39.6281C36.8562 41.4594 37.5656 42.1281 38.6719 42.1281C39.6406 42.1281 40.4344 41.5969 40.4344 39.8062V38.6594C40.4344 37.0469 39.575 36.4469 38.6469 36.4469C37.5656 36.4469 36.8562 37.2125 36.8562 38.9188Z" fill="white"/>
</svg>
