<svg width="50" height="50" viewBox="0 0 50 50" fill="none" xmlns="http://www.w3.org/2000/svg">
<path d="M9.375 6.25C9.375 4.5924 10.0335 3.00269 11.2056 1.83058C12.3777 0.65848 13.9674 0 15.625 0L34.375 0C36.0326 0 37.6223 0.65848 38.7944 1.83058C39.9665 3.00269 40.625 4.5924 40.625 6.25V43.75C40.625 45.4076 39.9665 46.9973 38.7944 48.1694C37.6223 49.3415 36.0326 50 34.375 50H15.625C13.9674 50 12.3777 49.3415 11.2056 48.1694C10.0335 46.9973 9.375 45.4076 9.375 43.75V6.25ZM28.125 40.625C28.125 39.7962 27.7958 39.0013 27.2097 38.4153C26.6237 37.8292 25.8288 37.5 25 37.5C24.1712 37.5 23.3763 37.8292 22.7903 38.4153C22.2042 39.0013 21.875 39.7962 21.875 40.625C21.875 41.4538 22.2042 42.2487 22.7903 42.8347C23.3763 43.4208 24.1712 43.75 25 43.75C25.8288 43.75 26.6237 43.4208 27.2097 42.8347C27.7958 42.2487 28.125 41.4538 28.125 40.625Z" fill="white"/>
</svg>
