<svg width="122" height="122" viewBox="0 0 122 122" fill="none" xmlns="http://www.w3.org/2000/svg">
<rect x="2.82843" y="61" width="82.267" height="82.267" rx="12" transform="rotate(-45 2.82843 61)" stroke="white" stroke-width="4"/>
<path d="M51.3125 48.25C50.9064 48.25 50.5169 48.4113 50.2297 48.6985C49.9426 48.9857 49.7812 49.3751 49.7812 49.7812C49.7812 50.1874 49.9426 50.5768 50.2297 50.864C50.5169 51.1512 50.9064 51.3125 51.3125 51.3125H69.6875C70.0936 51.3125 70.4831 51.1512 70.7703 50.864C71.0574 50.5768 71.2188 50.1874 71.2188 49.7812C71.2188 49.3751 71.0574 48.9857 70.7703 48.6985C70.4831 48.4113 70.0936 48.25 69.6875 48.25H51.3125ZM49.7812 55.9062C49.7812 55.5001 49.9426 55.1107 50.2297 54.8235C50.5169 54.5363 50.9064 54.375 51.3125 54.375H69.6875C70.0936 54.375 70.4831 54.5363 70.7703 54.8235C71.0574 55.1107 71.2188 55.5001 71.2188 55.9062C71.2188 56.3124 71.0574 56.7018 70.7703 56.989C70.4831 57.2762 70.0936 57.4375 69.6875 57.4375H51.3125C50.9064 57.4375 50.5169 57.2762 50.2297 56.989C49.9426 56.7018 49.7812 56.3124 49.7812 55.9062ZM51.3125 60.5C50.9064 60.5 50.5169 60.6613 50.2297 60.9485C49.9426 61.2357 49.7812 61.6251 49.7812 62.0312C49.7812 62.4374 49.9426 62.8268 50.2297 63.114C50.5169 63.4012 50.9064 63.5625 51.3125 63.5625H69.6875C70.0936 63.5625 70.4831 63.4012 70.7703 63.114C71.0574 62.8268 71.2188 62.4374 71.2188 62.0312C71.2188 61.6251 71.0574 61.2357 70.7703 60.9485C70.4831 60.6613 70.0936 60.5 69.6875 60.5H51.3125ZM51.3125 66.625C50.9064 66.625 50.5169 66.7863 50.2297 67.0735C49.9426 67.3607 49.7812 67.7501 49.7812 68.1562C49.7812 68.5624 49.9426 68.9518 50.2297 69.239C50.5169 69.5262 50.9064 69.6875 51.3125 69.6875H60.5C60.9061 69.6875 61.2956 69.5262 61.5828 69.239C61.8699 68.9518 62.0312 68.5624 62.0312 68.1562C62.0312 67.7501 61.8699 67.3607 61.5828 67.0735C61.2956 66.7863 60.9061 66.625 60.5 66.625H51.3125Z" fill="white"/>
<path d="M42.125 42.125C42.125 40.5005 42.7703 38.9426 43.919 37.794C45.0676 36.6453 46.6255 36 48.25 36H72.75C74.3745 36 75.9324 36.6453 77.081 37.794C78.2297 38.9426 78.875 40.5005 78.875 42.125V78.875C78.875 80.4995 78.2297 82.0574 77.081 83.206C75.9324 84.3547 74.3745 85 72.75 85H48.25C46.6255 85 45.0676 84.3547 43.919 83.206C42.7703 82.0574 42.125 80.4995 42.125 78.875V42.125ZM72.75 39.0625H48.25C47.4378 39.0625 46.6588 39.3852 46.0845 39.9595C45.5102 40.5338 45.1875 41.3128 45.1875 42.125V78.875C45.1875 79.6872 45.5102 80.4662 46.0845 81.0405C46.6588 81.6148 47.4378 81.9375 48.25 81.9375H72.75C73.5622 81.9375 74.3412 81.6148 74.9155 81.0405C75.4898 80.4662 75.8125 79.6872 75.8125 78.875V42.125C75.8125 41.3128 75.4898 40.5338 74.9155 39.9595C74.3412 39.3852 73.5622 39.0625 72.75 39.0625Z" fill="white"/>
</svg>
