<svg width="122" height="122" viewBox="0 0 122 122" fill="none" xmlns="http://www.w3.org/2000/svg">
<path d="M77.3438 39.0625C78.156 39.0625 78.9349 39.3852 79.5093 39.9595C80.0836 40.5338 80.4062 41.3128 80.4062 42.125V78.875C80.4062 79.6872 80.0836 80.4662 79.5093 81.0405C78.9349 81.6148 78.156 81.9375 77.3438 81.9375H43.6562C42.844 81.9375 42.0651 81.6148 41.4907 81.0405C40.9164 80.4662 40.5938 79.6872 40.5938 78.875V42.125C40.5938 41.3128 40.9164 40.5338 41.4907 39.9595C42.0651 39.3852 42.844 39.0625 43.6562 39.0625H77.3438ZM43.6562 36C42.0318 36 40.4739 36.6453 39.3252 37.794C38.1766 38.9426 37.5312 40.5005 37.5312 42.125V78.875C37.5312 80.4995 38.1766 82.0574 39.3252 83.206C40.4739 84.3547 42.0318 85 43.6562 85H77.3438C78.9682 85 80.5261 84.3547 81.6748 83.206C82.8234 82.0574 83.4688 80.4995 83.4688 78.875V42.125C83.4688 40.5005 82.8234 38.9426 81.6748 37.794C80.5261 36.6453 78.9682 36 77.3438 36H43.6562Z" fill="#868686"/>
<path d="M55.9062 45.1875C55.9062 44.3753 56.2289 43.5963 56.8032 43.022C57.3776 42.4477 58.1565 42.125 58.9688 42.125H62.0312C62.8435 42.125 63.6224 42.4477 64.1968 43.022C64.7711 43.5963 65.0938 44.3753 65.0938 45.1875V54.375C65.0938 55.1872 64.7711 55.9662 64.1968 56.5405C63.6224 57.1148 62.8435 57.4375 62.0312 57.4375H58.9688C58.1565 57.4375 57.3776 57.1148 56.8032 56.5405C56.2289 55.9662 55.9062 55.1872 55.9062 54.375V45.1875ZM43.6562 45.1875C43.6562 44.3753 43.9789 43.5963 44.5532 43.022C45.1276 42.4477 45.9065 42.125 46.7188 42.125H49.7812C50.5935 42.125 51.3724 42.4477 51.9468 43.022C52.5211 43.5963 52.8438 44.3753 52.8438 45.1875V66.625C52.8438 67.4372 52.5211 68.2162 51.9468 68.7905C51.3724 69.3648 50.5935 69.6875 49.7812 69.6875H46.7188C45.9065 69.6875 45.1276 69.3648 44.5532 68.7905C43.9789 68.2162 43.6562 67.4372 43.6562 66.625V45.1875ZM68.1562 45.1875C68.1562 44.3753 68.4789 43.5963 69.0532 43.022C69.6276 42.4477 70.4065 42.125 71.2188 42.125H74.2812C75.0935 42.125 75.8724 42.4477 76.4468 43.022C77.0211 43.5963 77.3438 44.3753 77.3438 45.1875V75.8125C77.3438 76.6247 77.0211 77.4037 76.4468 77.978C75.8724 78.5523 75.0935 78.875 74.2812 78.875H71.2188C70.4065 78.875 69.6276 78.5523 69.0532 77.978C68.4789 77.4037 68.1562 76.6247 68.1562 75.8125V45.1875Z" fill="#868686"/>
<rect x="2.82843" y="61" width="82.267" height="82.267" rx="12" transform="rotate(-45 2.82843 61)" stroke="#868686" stroke-width="4"/>
</svg>
