<svg width="122" height="122" viewBox="0 0 122 122" fill="none" xmlns="http://www.w3.org/2000/svg">
<rect x="2.82843" y="61" width="82.267" height="82.267" rx="12" transform="rotate(-45 2.82843 61)" stroke="white" stroke-width="4"/>
<path d="M69.6875 42.125C69.6875 41.3128 70.0102 40.5338 70.5845 39.9595C71.1588 39.3852 71.9378 39.0625 72.75 39.0625H78.875C79.6872 39.0625 80.4662 39.3852 81.0405 39.9595C81.6148 40.5338 81.9375 41.3128 81.9375 42.125V78.875H83.4688C83.8749 78.875 84.2643 79.0363 84.5515 79.3235C84.8387 79.6107 85 80.0001 85 80.4062C85 80.8124 84.8387 81.2018 84.5515 81.489C84.2643 81.7762 83.8749 81.9375 83.4688 81.9375H37.5312C37.1251 81.9375 36.7357 81.7762 36.4485 81.489C36.1613 81.2018 36 80.8124 36 80.4062C36 80.0001 36.1613 79.6107 36.4485 79.3235C36.7357 79.0363 37.1251 78.875 37.5312 78.875H39.0625V69.6875C39.0625 68.8753 39.3852 68.0963 39.9595 67.522C40.5338 66.9477 41.3128 66.625 42.125 66.625H48.25C49.0622 66.625 49.8412 66.9477 50.4155 67.522C50.9898 68.0963 51.3125 68.8753 51.3125 69.6875V78.875H54.375V57.4375C54.375 56.6253 54.6977 55.8463 55.272 55.272C55.8463 54.6977 56.6253 54.375 57.4375 54.375H63.5625C64.3747 54.375 65.1537 54.6977 65.728 55.272C66.3023 55.8463 66.625 56.6253 66.625 57.4375V78.875H69.6875V42.125Z" fill="white"/>
</svg>
