<svg width="122" height="122" viewBox="0 0 122 122" fill="none" xmlns="http://www.w3.org/2000/svg">
<rect x="2.82843" y="61" width="82.267" height="82.267" rx="12" transform="rotate(-45 2.82843 61)" stroke="white" stroke-width="4"/>
<path d="M60.5 36C46.9637 36 36 46.9637 36 60.5C36 71.3413 43.0131 80.4981 52.7519 83.7444C53.9769 83.9588 54.4363 83.2238 54.4363 82.5806C54.4363 81.9987 54.4056 80.0694 54.4056 78.0175C48.25 79.1506 46.6575 76.5169 46.1675 75.1387C45.8919 74.4344 44.6975 72.26 43.6562 71.6781C42.7987 71.2188 41.5738 70.0856 43.6256 70.055C45.555 70.0244 46.9331 71.8312 47.3925 72.5662C49.5975 76.2719 53.1194 75.2306 54.5281 74.5875C54.7425 72.995 55.3856 71.9231 56.09 71.3106C50.6388 70.6981 44.9425 68.585 44.9425 59.2137C44.9425 56.5494 45.8919 54.3444 47.4537 52.6294C47.2087 52.0169 46.3512 49.5056 47.6987 46.1369C47.6987 46.1369 49.7506 45.4938 54.4363 48.6481C56.3962 48.0969 58.4788 47.8212 60.5613 47.8212C62.6438 47.8212 64.7263 48.0969 66.6863 48.6481C71.3719 45.4631 73.4238 46.1369 73.4238 46.1369C74.7713 49.5056 73.9137 52.0169 73.6688 52.6294C75.2306 54.3444 76.18 56.5187 76.18 59.2137C76.18 68.6156 70.4531 70.6981 65.0019 71.3106C65.89 72.0762 66.6556 73.5462 66.6556 75.8431C66.6556 79.12 66.625 81.7537 66.625 82.5806C66.625 83.2238 67.0844 83.9894 68.3094 83.7444C73.1733 82.1028 77.3999 78.9771 80.3941 74.8073C83.3882 70.6374 84.9991 65.6335 85 60.5C85 46.9637 74.0363 36 60.5 36Z" fill="white"/>
</svg>
